<svg xmlns="http://www.w3.org/2000/svg" width="56.001" height="56.001" viewBox="0 0 56.001 56.001">
    <defs>
        <style>.a{fill:#1a703b;}</style>
    </defs>
    <path class="a" d="M6348,552a27.911,27.911,0,1,1,10.9-2.2A27.825,27.825,0,0,1,6348,552Zm-6-32.282c.1,0,.19,0,.283.013l.185.016h.008a2.422,2.422,0,0,1,1.1.287l.157.074.042.019c.3.142.3.142.426.327l.02.03.031.046a1.145,1.145,0,0,1,.149.716l-4.225,15.493h-.014a4.989,4.989,0,0,0-.268,2.388,3.4,3.4,0,0,0,.935,1.571,4.576,4.576,0,0,0,2.5,1.629,5.591,5.591,0,0,0,1.46.192,8.1,8.1,0,0,0,5.358-2.3,17.831,17.831,0,0,0,3.9-5.485l-.759-.777s-.018.023-.046.059c-.666.834-2.264,2.826-2.736,3.3a.952.952,0,0,1-.7.256,2.658,2.658,0,0,1-1.023-.256v-.409l5.636-20.572-12.7,1.744c-.009.013-.981,1.394-.817,1.71a.129.129,0,0,0,.127.065.57.57,0,0,0,.187-.041A3.18,3.18,0,0,1,6342,519.719Zm8.584-15.012a4.738,4.738,0,1,0,4.738,4.738A4.744,4.744,0,0,0,6350.585,504.707Z" transform="translate(-6319.999 -496)"/>
</svg>